<?xml version="1.0" standalone="no"?>
<!DOCTYPE svg PUBLIC "-//W3C//DTD SVG 20010904//EN"
 "http://www.w3.org/TR/2001/REC-SVG-20010904/DTD/svg10.dtd">
<svg version="1.0" xmlns="http://www.w3.org/2000/svg"
 width="260.000000pt" height="280.000000pt" viewBox="0 0 260.000000 280.000000"
 preserveAspectRatio="xMidYMid meet">
<metadata>
Created by potrace 1.16, written by Peter Selinger 2001-2019
</metadata>
<g transform="translate(0.000000,280.000000) scale(0.100000,-0.100000)"
fill="#000000" stroke="none">
<path d="M590 1435 l0 -715 26 0 c15 0 32 8 39 17 11 14 9 20 -10 35 -30 23
-35 48 -19 86 9 22 23 34 46 41 32 9 31 9 -19 10 l-53 1 0 90 0 90 90 0 90 0
0 85 0 85 -90 0 -90 0 0 90 0 90 90 0 89 0 3 -86 3 -86 80 -2 80 -1 3 88 3 87
89 0 90 0 0 -86 c0 -58 3 -83 11 -79 7 5 8 25 4 54 -8 63 15 95 70 95 73 0 99
-73 45 -124 -16 -15 -30 -31 -30 -34 0 -3 16 -6 35 -6 l35 0 0 -85 0 -85 -60
0 c-38 0 -60 -4 -60 -11 0 -7 9 -9 21 -6 55 14 106 -52 78 -102 -8 -14 -25
-30 -37 -36 -43 -19 -17 -33 36 -19 21 6 22 12 22 90 l0 84 90 0 90 0 0 -84 0
-83 54 -7 c30 -3 68 -3 85 0 l31 7 0 83 0 84 90 0 90 0 0 -84 0 -83 50 -7 c28
-4 66 -4 85 0 l35 6 0 -91 0 -91 -88 0 -89 0 2 85 1 85 -88 0 -88 0 0 -85 0
-85 -85 0 -85 0 -1 58 c-1 31 0 69 1 85 l2 27 -91 0 -91 0 0 -86 0 -86 -95 4
c-70 2 -96 0 -100 -10 -3 -10 88 -12 453 -10 l457 3 3 713 2 712 -715 0 -715
0 0 -715z m190 615 l0 -90 85 0 85 0 0 90 0 90 90 0 90 0 0 -90 0 -90 -90 0
-90 0 0 -85 0 -85 91 0 90 0 -1 73 c-1 39 -1 78 -1 85 1 8 25 12 86 12 l85 0
0 90 0 90 90 0 90 0 0 -90 0 -90 85 0 85 0 0 90 0 90 90 0 90 0 0 -90 0 -90
-90 0 -90 0 0 -85 0 -85 84 0 85 0 4 43 c3 23 4 60 4 82 l-2 40 88 3 87 3 0
-86 0 -85 -85 0 -85 0 0 -90 0 -90 -90 0 -90 0 0 90 0 89 -87 3 -86 3 2 83 2
82 -90 0 -91 0 0 -85 0 -85 90 0 90 0 0 -90 0 -90 -90 0 -90 0 0 -85 0 -85 90
0 89 0 3 86 3 86 80 0 80 0 3 -86 3 -86 84 0 85 0 0 79 c0 46 5 83 11 86 8 6
100 9 159 6 6 -1 10 -36 10 -86 l0 -85 -85 0 -85 0 0 -88 0 -88 85 3 85 4 0
-91 0 -91 -87 3 c-87 3 -88 3 -86 28 1 14 0 51 -3 83 l-6 57 -84 0 -84 0 0
-85 0 -85 -85 0 -85 0 -1 68 c-1 37 -1 75 0 85 2 15 -8 17 -88 17 l-91 0 0 90
0 90 -85 0 -85 0 0 85 0 85 -90 0 -90 0 0 -85 0 -85 -85 0 -85 0 0 85 0 85
-90 0 -90 0 0 90 0 90 90 0 90 0 0 85 0 85 -90 0 -90 0 0 90 0 90 90 0 90 0 0
-90z m-40 -820 c30 -30 27 -83 -6 -109 -34 -27 -57 -26 -88 2 -53 47 -25 127
44 127 17 0 39 -9 50 -20z m700 0 c30 -30 27 -83 -6 -109 -34 -27 -57 -26 -90
2 -53 46 -23 127 47 127 16 0 38 -9 49 -20z m350 0 c30 -30 27 -83 -6 -109
-31 -24 -43 -26 -78 -10 -48 22 -54 102 -9 128 29 17 71 13 93 -9z m-203 -160
c28 -10 53 -45 53 -74 0 -7 -9 -25 -21 -40 -27 -34 -79 -36 -109 -4 -34 37
-22 100 23 118 12 5 22 9 23 9 1 1 15 -4 31 -9z m356 -1 c24 -11 47 -47 47
-73 0 -7 -9 -25 -21 -40 -27 -34 -79 -36 -109 -4 -34 37 -22 100 23 118 30 12
32 12 60 -1z m-503 -189 c30 -30 27 -83 -6 -109 -34 -27 -57 -26 -90 2 -54 47
-24 127 47 127 16 0 38 -9 49 -20z m350 0 c30 -30 27 -83 -6 -109 -31 -24 -43
-26 -78 -10 -48 22 -54 102 -9 128 29 17 71 13 93 -9z"/>
<path d="M780 1700 l0 -90 85 0 85 0 0 90 0 90 -85 0 -85 0 0 -90z"/>
<path d="M1130 1700 l0 -90 85 0 85 0 0 90 0 90 -85 0 -85 0 0 -90z"/>
<path d="M1482 1354 l3 -86 80 0 80 0 3 86 3 86 -86 0 -86 0 3 -86z"/>
<path d="M950 1187 l0 -73 51 -13 c47 -12 53 -12 69 5 16 18 60 122 60 144 0
6 -39 10 -90 10 l-90 0 0 -73z"/>
<path d="M610 673 c-6 -21 -18 -52 -26 -70 -8 -17 -14 -37 -14 -45 0 -7 -25
-89 -54 -183 l-54 -170 225 -3 c124 -1 227 -1 229 0 10 11 122 384 116 389
-30 27 -323 119 -378 119 -29 0 -34 -4 -44 -37z"/>
</g>
</svg>